HIERARCHY
ROOT hip
{
	OFFSET 0.000000 0.000000 0.000000 
	CHANNELS 6 Xposition Yposition Zposition Xrotation Zrotation Yrotation
	JOINT abdomen
	{
		OFFSET 0.000000 3.402643 0.000000 
		CHANNELS 3 Xrotation Zrotation Yrotation
		JOINT chest
		{
			OFFSET 0.000000 8.438565 -0.680529 
			CHANNELS 3 Xrotation Zrotation Yrotation
			JOINT neck
			{
				OFFSET 0.000000 10.207942 -0.272212 
				CHANNELS 3 Xrotation Zrotation Yrotation
				JOINT head
				{
					OFFSET 0.000000 3.130431 0.000000 
					CHANNELS 3 Xrotation Zrotation Yrotation
					End Site
					{
						OFFSET 0.000000 3.130435 0.000000 
					}
				}
			}
			JOINT lCollar
			{
				OFFSET 3.470700 6.669187 -0.816635 
				CHANNELS 3 Yrotation Zrotation Xrotation
				JOINT lShldr
				{
					OFFSET 3.198488 0.000000 0.000000 
					CHANNELS 3 Zrotation Yrotation Xrotation
					JOINT lForeArm
					{
						OFFSET 10.139888 0.000000 0.000000 
						CHANNELS 3 Yrotation Zrotation Xrotation
						JOINT lHand
						{
							OFFSET 8.370511 0.000000 0.000000 
							CHANNELS 3 Zrotation Yrotation Xrotation
							End Site
							{
								OFFSET 4.083176 0.000000 0.000000 
							}
						}
					}
				}
			}
			JOINT rCollar
			{
				OFFSET -3.470700 6.669187 -0.816635 
				CHANNELS 3 Yrotation Zrotation Xrotation
				JOINT rShldr
				{
					OFFSET -3.198488 0.000000 0.000000 
					CHANNELS 3 Zrotation Yrotation Xrotation
					JOINT rForeArm
					{
						OFFSET -10.139888 0.000000 0.000000 
						CHANNELS 3 Yrotation Zrotation Xrotation
						JOINT rHand
						{
							OFFSET -8.370511 0.000000 0.000000 
							CHANNELS 3 Zrotation Yrotation Xrotation
							End Site
							{
								OFFSET -4.083176 0.000000 0.000000 
							}
						}
					}
				}
			}
		}
	}
	JOINT lThigh
	{
		OFFSET 5.308129 -1.633274 1.361059 
		CHANNELS 3 Xrotation Zrotation Yrotation
		JOINT lShin
		{
			OFFSET -2.041588 -20.007561 0.000000 
			CHANNELS 3 Xrotation Zrotation Yrotation
			JOINT lFoot
			{
				OFFSET 0.000000 -19.190928 -1.224953 
				CHANNELS 3 Xrotation Yrotation Zrotation
				End Site
				{
					OFFSET 0.000000 -2.449906 4.627600 
				}
			}
		}
	}
	JOINT rThigh
	{
		OFFSET -5.308129 -1.633274 1.361059 
		CHANNELS 3 Xrotation Zrotation Yrotation
		JOINT rShin
		{
			OFFSET 2.041588 -20.007561 0.000000 
			CHANNELS 3 Xrotation Zrotation Yrotation
			JOINT rFoot
			{
				OFFSET 0.000000 -19.190928 -1.224953 
				CHANNELS 3 Xrotation Yrotation Zrotation
				End Site
				{
					OFFSET 0.000000 -2.449906 4.627600 
				}
			}
		}
	}
}
MOTION
Frames: 18
Frame Time: 0.016667
-0.344811 42.398129 -0.044732 1.284180 -4.998750 1.909140 -16.503000 -0.219040 0.664286 25.272400 -3.484290 0.181441 2.464840 5.085660 -0.276845 7.738950 6.063540 0.443873 2.000000 -2.000000 0.000000 -76.483002 2.363620 -171.645996 32.637100 -0.329978 0.073792 0.065984 -0.059855 -158.826004 -2.000000 2.000000 0.000000 -96.970001 -168.184998 3.602830 -42.314899 0.315945 0.092042 -0.057100 0.029314 -147.449005 -10.438071 2.860424 2.757541 29.023338 2.952001 2.124847 -16.993881 5.215856 0.599768 -9.247509 7.536513 -5.381465 28.995939 -2.484768 -2.295754 -21.057409 -12.678176 -6.820396 
-0.343844 42.396973 -0.040884 1.274360 -4.989010 1.890680 -16.503000 -0.234338 0.678975 25.282200 -3.493970 0.180044 2.405580 4.939670 -0.291678 7.708790 5.985840 0.426015 2.000000 -2.000000 0.000000 -76.492798 2.353880 -171.636002 32.617500 -0.330003 0.073753 0.065984 -0.059855 -158.826004 -2.000000 2.000000 0.000000 -96.872299 -168.154999 3.592990 -42.305099 0.315961 0.092024 -0.057090 0.029261 -147.429993 -10.429287 2.828884 2.728731 29.053385 2.949603 2.134092 -17.044954 5.214960 0.601663 -9.238049 7.516605 -5.370135 29.006618 -2.478382 -2.303753 -21.005814 -12.711182 -6.809010 
-0.337624 42.397884 -0.038295 1.284140 -4.979220 1.860750 -16.512699 -0.240250 0.690969 25.292101 -3.513390 0.187605 2.494310 5.114740 -0.271226 7.748850 6.073200 0.445536 2.000000 -2.000000 0.000000 -76.561203 2.334190 -171.703995 32.539398 -0.330104 0.073596 0.065862 -0.059551 -158.709000 -2.000000 2.000000 0.000000 -96.813698 -168.154999 3.641820 -42.265999 0.316023 0.091955 -0.057095 0.029288 -147.438995 -10.458858 2.822595 2.759579 29.034229 2.944560 2.133110 -17.020327 5.229589 0.608211 -9.249665 7.501471 -5.353101 29.015146 -2.489733 -2.296630 -20.999546 -12.695057 -6.821998 
-0.334979 42.397491 -0.033310 1.284180 -4.998750 1.831020 -16.512600 -0.227458 0.697339 25.301901 -3.503610 0.187813 2.550830 5.146350 -0.222303 7.768670 6.092510 0.468402 2.000000 -2.000000 0.000000 -76.561203 2.373410 -171.636002 32.558899 -0.330078 0.073635 0.065903 -0.059652 -158.748001 -2.000000 2.000000 0.000000 -96.745399 -168.136002 3.671070 -42.207500 0.316117 0.091852 -0.057095 0.029288 -147.438995 -10.398772 2.829389 2.727292 29.004839 2.944059 2.133389 -17.019878 5.272630 0.610247 -9.236606 7.520055 -5.292452 29.007063 -2.477684 -2.313307 -21.031605 -12.703377 -6.820036 
-0.333684 42.396973 -0.027242 1.274340 -4.979240 1.832300 -16.502899 -0.230909 0.688120 25.321501 -3.513240 0.185810 2.778010 5.083540 -0.230495 7.886340 6.071950 0.469764 2.000000 -2.000000 0.000000 -76.570900 2.393080 -171.578003 32.588200 -0.330041 0.073694 0.065943 -0.059754 -158.787003 -2.000000 2.000000 0.000000 -96.706299 -168.126007 3.719870 -42.178200 0.316164 0.091800 -0.057115 0.029395 -147.477997 -10.391578 2.816004 2.736709 29.043829 2.946824 2.133535 -17.037804 5.314827 0.635038 -9.220749 7.508442 -5.290980 29.006826 -2.475684 -2.303103 -21.009903 -12.735620 -6.837053 
-0.334893 42.396336 -0.018810 1.284260 -5.037800 1.820380 -16.512699 -0.215590 0.673502 25.341000 -3.513140 0.184613 2.831560 5.099010 -0.134668 7.905980 6.071770 0.520658 2.000000 -2.000000 0.000000 -76.590401 2.422400 -171.567993 32.598000 -0.330028 0.073714 0.065913 -0.059678 -158.757996 -2.000000 2.000000 0.000000 -96.647697 -168.115997 3.690550 -42.139099 0.316227 0.091731 -0.057100 0.029314 -147.449005 -10.394585 2.873791 2.745231 29.023960 2.945250 2.123691 -17.061657 5.303119 0.630202 -9.212626 7.584616 -5.271410 28.985277 -2.490922 -2.287728 -21.018795 -12.761045 -6.842950 
-0.334851 42.396076 -0.015168 1.254890 -5.057390 1.822520 -16.493200 -0.213126 0.652299 25.360600 -3.513040 0.173651 2.986910 4.824770 -0.125674 7.983360 5.944400 0.520199 2.000000 -2.000000 0.000000 -76.570900 2.451810 -171.518997 32.646801 -0.329965 0.073812 0.065994 -0.059881 -158.835999 -2.000000 2.000000 0.000000 -96.638000 -168.173996 3.837180 -42.070702 0.316336 0.091610 -0.057151 0.029583 -147.546997 -10.378365 2.912281 2.802231 29.053896 2.944062 2.132699 -17.072676 5.193198 0.579931 -9.173198 7.603708 -5.276133 28.975393 -2.492032 -2.288174 -21.046412 -12.754659 -6.843493 
-0.328955 42.392727 -0.010713 1.254870 -5.047620 1.822740 -16.463800 -0.187601 0.664844 25.419201 -3.493270 0.181479 3.410440 5.151480 -0.064254 7.756170 5.790510 0.525865 2.000000 -2.000000 0.000000 -76.609901 2.393220 -171.518997 32.637100 -0.329978 0.073792 0.065974 -0.059830 -158.815994 -2.000000 2.000000 0.000000 -96.579399 -168.184998 3.680960 -42.099998 0.316289 0.091662 -0.057140 0.029530 -147.526993 -10.387135 2.876318 2.705873 29.081911 2.950921 2.114069 -17.091694 5.345937 0.633691 -9.176005 7.566854 -5.324106 28.986742 -2.477027 -2.294051 -21.014381 -12.711683 -6.822061 
-0.327408 42.393246 -0.002553 1.264630 -5.028080 1.783250 -16.454100 -0.202923 0.679451 25.448601 -3.502850 0.188628 2.949530 4.844300 0.006766 7.963720 5.944580 0.586535 2.000000 -2.000000 0.000000 -76.649101 2.373300 -171.684998 32.568699 -0.330066 0.073655 0.065852 -0.059525 -158.699005 -2.000000 2.000000 0.000000 -96.501198 -168.145996 3.583200 -42.119598 0.316258 0.091697 -0.057115 0.029395 -147.477997 -10.365214 2.861259 2.773532 29.062366 2.954334 2.124889 -17.044756 5.291567 0.622619 -9.171052 7.557657 -5.294860 28.994854 -2.493697 -2.288239 -21.011766 -12.694194 -6.822756 
-0.330672 42.393246 0.000221 1.235330 -5.086710 1.794320 -16.434500 -0.171436 0.680170 25.487600 -3.483190 0.187917 2.927340 4.906380 0.054739 7.964080 5.983550 0.618503 2.000000 -2.000000 0.000000 -76.678398 2.324330 -171.742996 32.519901 -0.330129 0.073557 0.065842 -0.059500 -158.688995 -2.000000 2.000000 0.000000 -96.452400 -168.126007 3.495270 -42.139099 0.316227 0.091731 -0.057126 0.029449 -147.498001 -10.354671 2.935611 2.761281 29.083061 2.946970 2.133018 -17.086342 5.288531 0.622839 -9.130078 7.644794 -5.202080 28.948236 -2.473388 -2.303493 -21.017715 -12.762642 -6.844008 
-0.341616 42.392727 0.009487 1.215670 -5.057460 1.806440 -16.405100 -0.177433 0.691875 25.536501 -3.473200 0.195563 3.264180 5.271540 0.085869 7.697700 5.839740 0.601195 2.000000 -2.000000 0.000000 -76.668602 2.285250 -171.753006 32.490601 -0.330166 0.073498 0.065852 -0.059525 -158.699005 -2.000000 2.000000 0.000000 -96.374199 -168.126999 3.407380 -42.129299 0.316242 0.091714 -0.057131 0.029476 -147.507996 -10.359899 2.931971 2.830251 29.169695 2.965066 2.135888 -17.136217 5.184160 0.577653 -9.091793 7.647033 -5.138549 28.955688 -2.493536 -2.288809 -21.083157 -12.855532 -6.909213 
-0.343129 42.390144 0.012594 1.215630 -5.037930 1.806850 -16.375900 -0.156241 0.665129 25.585100 -3.414570 0.187966 3.201270 5.247580 0.142550 7.678070 5.839910 0.628504 2.000000 -2.000000 0.000000 -76.717499 2.275200 -171.869995 32.451500 -0.330216 0.073419 0.065771 -0.059322 -158.621002 -2.000000 2.000000 0.000000 -96.413300 -168.145996 3.436720 -42.109798 0.316274 0.091679 -0.057131 0.029476 -147.507996 -10.365693 2.891881 2.782541 29.112291 2.949167 2.133157 -17.124176 5.298131 0.630337 -9.106766 7.610543 -5.208724 28.976696 -2.485385 -2.305904 -21.066223 -12.773049 -6.868876 
-0.347541 42.388344 0.011301 1.166720 -5.096600 1.770880 -16.346399 -0.133210 0.698773 25.594999 -3.433980 0.205204 3.182260 5.247060 0.129880 7.668250 5.839990 0.617745 2.000000 -2.000000 0.000000 -76.658798 2.295080 -171.723999 32.529598 -0.330116 0.073576 0.065872 -0.059576 -158.718994 -2.000000 2.000000 0.000000 -96.393799 -168.145996 3.426950 -42.109798 0.316274 0.091679 -0.057131 0.029476 -147.507996 -10.316812 2.966421 2.739311 29.247543 2.972136 2.136476 -17.171392 5.283171 0.602395 -9.042458 7.710282 -5.103720 28.967154 -2.482077 -2.305298 -21.096960 -12.821980 -6.880752 
-0.334434 42.386662 0.004218 1.137310 -5.096660 1.773480 -16.336800 -0.146943 0.662135 25.585400 -3.463210 0.183694 2.883720 5.068880 0.144453 7.964990 6.080970 0.664242 2.000000 -2.000000 0.000000 -76.697899 2.304640 -171.811996 32.480801 -0.330179 0.073478 0.065821 -0.059449 -158.669998 -2.000000 2.000000 0.000000 -96.403503 -168.126007 3.446440 -42.109798 0.316274 0.091679 -0.057105 0.029341 -147.459000 -10.260260 2.931723 2.688932 29.170204 2.955291 2.124169 -17.162777 5.342872 0.646500 -9.047633 7.687598 -5.124123 29.004938 -2.495100 -2.298049 -21.075850 -12.822769 -6.867238 
-0.334464 42.384090 0.005547 1.127490 -5.086910 1.794080 -16.297701 -0.152958 0.673775 25.644100 -3.472630 0.179290 3.201020 5.198830 0.139833 7.687710 5.820330 0.628255 2.000000 -2.000000 0.000000 -76.649101 2.295060 -171.733994 32.549198 -0.330091 0.073615 0.065903 -0.059652 -158.748001 -2.000000 2.000000 0.000000 -96.393799 -168.166000 3.456300 -42.070702 0.316336 0.091610 -0.057110 0.029368 -147.468994 -10.260036 2.929577 2.698735 29.179655 2.963516 2.135282 -17.142006 5.347868 0.637263 -9.041889 7.662529 -5.161288 29.014395 -2.494338 -2.288074 -21.097752 -12.799468 -6.878099 
-0.337648 42.382671 0.007545 1.078470 -5.086990 1.798410 -16.278099 -0.149566 0.682795 25.653900 -3.472570 0.188464 2.905460 5.036730 0.106955 7.984360 6.051560 0.644767 2.000000 -2.000000 0.000000 -76.619797 2.295080 -171.723999 32.519901 -0.330129 0.073557 0.065903 -0.059652 -158.748001 -2.000000 2.000000 0.000000 -96.344902 -168.106995 3.378030 -42.080502 0.316320 0.091627 -0.057085 0.029234 -147.419998 -10.198478 2.914691 2.637555 29.189127 2.962891 2.125291 -17.212530 5.394993 0.634158 -9.006815 7.675926 -5.118652 29.054487 -2.492790 -2.306340 -21.111160 -12.831402 -6.898893 
-0.339031 42.382416 0.009918 1.098010 -5.047910 1.807190 -16.258699 -0.150514 0.652505 25.712400 -3.433350 0.178654 3.240690 5.188070 0.135415 7.707350 5.820170 0.630235 2.000000 -2.000000 0.000000 -76.629601 2.304780 -171.753006 32.539398 -0.330104 0.073596 0.065913 -0.059678 -158.757996 -2.000000 2.000000 0.000000 -96.413300 -168.184998 3.446580 -42.012100 0.316430 0.091506 -0.057105 0.029341 -147.459000 -10.253695 2.879007 2.709656 29.236618 2.975653 2.118070 -17.245962 5.385329 0.630095 -9.017897 7.629131 -5.177664 29.052746 -2.505099 -2.289909 -21.087173 -12.815131 -6.886322 
-0.345571 42.382023 0.011900 1.068650 -5.077250 1.779920 -16.258600 -0.146174 0.691815 25.692900 -3.443180 0.198482 3.331560 5.164390 0.099703 7.736710 5.810170 0.613045 2.000000 -2.000000 0.000000 -76.619797 2.265620 -171.792007 32.431999 -0.330241 0.073380 0.065862 -0.059551 -158.709000 -2.000000 2.000000 0.000000 -96.384003 -168.145996 3.348830 -41.992599 0.316461 0.091472 -0.057095 0.029288 -147.438995 -10.190930 2.928566 2.676073 29.189281 2.965537 2.135649 -17.163742 5.384363 0.636628 -8.980663 7.693401 -5.095515 29.015095 -2.490460 -2.296731 -21.106176 -12.842830 -6.895083 
